<svg width="168" height="24" viewBox="0 0 168 24" fill="none" xmlns="http://www.w3.org/2000/svg">
<path d="M14 13.5H16.5L17.5 9.5H14V7.5C14 6.47062 14 5.5 16 5.5H17.5V2.1401C17.1743 2.09685 15.943 2 14.6429 2C11.9284 2 10 3.65686 10 6.69971V9.5H7V13.5H10V22H14V13.5Z" fill="#2B2B2B" fill-opacity="0.5"/>
<path d="M61.0281 2.00098C62.1535 2.00284 62.7238 2.00879 63.2166 2.02346L63.4107 2.02981C63.6349 2.03778 63.8561 2.04778 64.1228 2.06028C65.1869 2.10944 65.9128 2.27778 66.5503 2.52528C67.2094 2.77944 67.7661 3.12278 68.3219 3.67861C68.8769 4.23444 69.2203 4.79278 69.4753 5.45028C69.7219 6.08694 69.8903 6.81361 69.9403 7.87778C69.9522 8.14444 69.9618 8.36564 69.9697 8.58989L69.976 8.78397C69.9906 9.27672 69.9973 9.8471 69.9994 10.9725L70.0002 11.7182C70.0003 11.8093 70.0003 11.9033 70.0003 12.0003L70.0002 12.2824L69.9996 13.0281C69.9977 14.1535 69.9918 14.7238 69.9771 15.2166L69.9707 15.4107C69.9628 15.6349 69.9528 15.8561 69.9403 16.1228C69.8911 17.1869 69.7219 17.9128 69.4753 18.5503C69.2211 19.2094 68.8769 19.7661 68.3219 20.3219C67.7661 20.8769 67.2069 21.2203 66.5503 21.4753C65.9128 21.7219 65.1869 21.8903 64.1228 21.9403C63.8561 21.9522 63.6349 21.9618 63.4107 21.9697L63.2166 21.976C62.7238 21.9906 62.1535 21.9973 61.0281 21.9994L60.2824 22.0002C60.1913 22.0003 60.0973 22.0003 60.0003 22.0003L59.7182 22.0002L58.9725 21.9996C57.8471 21.9977 57.2767 21.9918 56.784 21.9771L56.5899 21.9707C56.3656 21.9628 56.1444 21.9528 55.8778 21.9403C54.8136 21.8911 54.0886 21.7219 53.4503 21.4753C52.7919 21.2211 52.2344 20.8769 51.6786 20.3219C51.1228 19.7661 50.7803 19.2069 50.5253 18.5503C50.2778 17.9128 50.1103 17.1869 50.0603 16.1228C50.0484 15.8561 50.0387 15.6349 50.0309 15.4107L50.0246 15.2166C50.0099 14.7238 50.0033 14.1535 50.0011 13.0281L50.001 10.9725C50.0028 9.8471 50.0088 9.27672 50.0235 8.78397L50.0298 8.58989C50.0378 8.36564 50.0478 8.14444 50.0603 7.87778C50.1094 6.81278 50.2778 6.08778 50.5253 5.45028C50.7794 4.79194 51.1228 4.23444 51.6786 3.67861C52.2344 3.12278 52.7928 2.78028 53.4503 2.52528C54.0878 2.27778 54.8128 2.11028 55.8778 2.06028C56.1444 2.0484 56.3656 2.03871 56.5899 2.03086L56.784 2.02457C57.2767 2.00994 57.8471 2.00327 58.9725 2.00111L61.0281 2.00098ZM60.0003 7.00028C57.2374 7.00028 55.0003 9.23981 55.0003 12.0003C55.0003 14.7632 57.2398 17.0003 60.0003 17.0003C62.7632 17.0003 65.0003 14.7607 65.0003 12.0003C65.0003 9.23738 62.7607 7.00028 60.0003 7.00028ZM60.0003 9.00028C61.6572 9.00028 63.0003 10.3429 63.0003 12.0003C63.0003 13.6572 61.6576 15.0003 60.0003 15.0003C58.3434 15.0003 57.0003 13.6576 57.0003 12.0003C57.0003 10.3434 58.3429 9.00028 60.0003 9.00028ZM65.2503 5.50028C64.561 5.50028 64.0003 6.06018 64.0003 6.74943C64.0003 7.43867 64.5602 7.99944 65.2503 7.99944C65.9395 7.99944 66.5003 7.43954 66.5003 6.74943C66.5003 6.06018 65.9386 5.49941 65.2503 5.50028Z" fill="#2B2B2B" fill-opacity="0.5"/>
<path d="M102.94 4.99993C102.94 5.81424 102.446 6.54702 101.691 6.85273C100.937 7.15845 100.072 6.97605 99.5049 6.39155C98.9379 5.80704 98.7819 4.93715 99.1105 4.19207C99.4391 3.44699 100.187 2.9755 101 2.99993C102.082 3.03238 102.941 3.91837 102.94 4.99993ZM103 8.47993H99.0005V20.9999H103V8.47993ZM109.321 8.47993H105.34V20.9999H109.281V14.4299C109.281 10.7699 114.051 10.4299 114.051 14.4299V20.9999H118V13.0699C118 6.89993 110.941 7.12993 109.281 10.1599L109.321 8.47993Z" fill="#2B2B2B" fill-opacity="0.5"/>
<path d="M156.244 4C156.778 4.00294 158.114 4.01586 159.534 4.07273L160.038 4.09468C161.467 4.16236 162.895 4.27798 163.604 4.4755C164.549 4.74095 165.291 5.5155 165.542 6.49732C165.942 8.05641 165.992 11.0994 165.998 11.8358L165.999 11.9884V11.9991C165.999 11.9991 165.999 12.0028 165.999 12.0099L165.998 12.1625C165.992 12.8989 165.942 15.9419 165.542 17.501C165.288 18.4864 164.545 19.261 163.604 19.5228C162.895 19.7203 161.467 19.8359 160.038 19.9036L159.534 19.9255C158.114 19.9824 156.778 19.9953 156.244 19.9983L156.009 19.9991H155.999C155.999 19.9991 155.996 19.9991 155.989 19.9991L155.755 19.9983C154.624 19.9921 149.898 19.941 148.395 19.5228C147.45 19.2573 146.707 18.4828 146.456 17.501C146.056 15.9419 146.006 12.8989 146 12.1625V11.8358C146.006 11.0994 146.056 8.05641 146.456 6.49732C146.71 5.51186 147.453 4.73732 148.395 4.4755C149.898 4.05723 154.624 4.00622 155.755 4H156.244ZM153.999 8.49914V15.4991L159.999 11.9991L153.999 8.49914Z" fill="#2B2B2B" fill-opacity="0.5"/>
</svg>
